<?xml version="1.0"?>
<svg xmlns="http://www.w3.org/2000/svg" xmlns:xlink="http://www.w3.org/1999/xlink" version="1.1" id="Capa_1" x="0px" y="0px" viewBox="0 0 395 395" style="enable-background:new 0 0 395 395;" xml:space="preserve" width="512px" height="512px" class=""><g><g>
	<path d="M334.895,91.865H60.105c-8.635,0-15.635,7-15.635,15.635v180c0,8.635,7,15.635,15.635,15.635h274.789   c8.635,0,15.635-7,15.635-15.635v-180C350.529,98.865,343.529,91.865,334.895,91.865z M280.629,123.403L197.5,183.012   l-83.129-59.608H280.629z M75.74,271.865V134.18l112.649,80.777c2.724,1.952,5.917,2.929,9.111,2.929s6.388-0.977,9.111-2.929   L319.26,134.18v137.686H75.74z" data-original="#000000" class="active-path" data-old_color="#000000" fill="#C12020"/>
	<path d="M313.002,0H82C36.785,0,0,36.784,0,81.998v230.993C0,358.211,36.785,395,82,395h231.002   C358.216,395,395,358.211,395,312.991V81.998C395,36.784,358.216,0,313.002,0z M380,312.991C380,349.94,349.944,380,313.002,380H82   c-36.944,0-67-30.06-67-67.009V81.998C15,45.056,45.056,15,82,15h231.002C349.944,15,380,45.056,380,81.998V312.991z" data-original="#000000" class="active-path" data-old_color="#000000" fill="#C12020"/>
</g></g> </svg>
