<?xml version="1.0" encoding="utf-8"?>
<!-- Generator: Adobe Illustrator 16.0.0, SVG Export Plug-In . SVG Version: 6.00 Build 0)  -->
<!DOCTYPE svg PUBLIC "-//W3C//DTD SVG 1.1//EN" "http://www.w3.org/Graphics/SVG/1.1/DTD/svg11.dtd">
<svg version="1.1" id="Layer_1" xmlns="http://www.w3.org/2000/svg" xmlns:xlink="http://www.w3.org/1999/xlink" x="0px" y="0px"
	 width="300px" height="300px" viewBox="0 0 300 300" enable-background="new 0 0 300 300" xml:space="preserve">
<g>
	<path d="M269.556,140.504l-31.376-37.663c-4.923-5.906-14.979-5.906-19.896,0l-31.388,37.663
		c-4.577,5.499-3.835,13.666,1.657,18.243c5.511,4.576,13.669,3.828,18.245-1.658l8.474-10.171v132.625
		c0,7.149,5.801,12.957,12.957,12.957s12.951-5.808,12.951-12.957V146.918l8.479,10.171c2.566,3.068,6.24,4.664,9.957,4.664
		c2.92,0,5.863-0.99,8.282-3.006C273.396,154.17,274.139,146.003,269.556,140.504z"/>
	<path d="M63.063,70.625H85.73c3.581,0,6.481-2.897,6.481-6.479V41.458c0-3.575-2.9-6.476-6.481-6.476H63.063
		c-3.581,0-6.476,2.901-6.476,6.476v22.689C56.587,67.728,59.481,70.625,63.063,70.625z"/>
	<path d="M111.639,70.625h22.667c3.587,0,6.481-2.897,6.481-6.479V41.458c0-3.575-2.895-6.476-6.481-6.476h-22.667
		c-3.575,0-6.476,2.901-6.476,6.476v22.689C105.163,67.728,108.063,70.625,111.639,70.625z"/>
	<path d="M163.461,7.5H33.914c-3.581,0-6.476,2.903-6.476,6.479v272.039c0,3.582,2.895,6.482,6.476,6.482h129.547
		c3.575,0,6.47-2.9,6.47-6.482V13.979C169.931,10.403,167.036,7.5,163.461,7.5z M92.212,258.545c0,3.581-2.9,6.481-6.481,6.481
		H63.063c-3.581,0-6.476-2.9-6.476-6.481v-22.698c0-3.581,2.895-6.476,6.476-6.476H85.73c3.581,0,6.481,2.895,6.481,6.476V258.545z
		 M92.212,209.944c0,3.575-2.9,6.47-6.481,6.47H63.063c-3.581,0-6.476-2.895-6.476-6.47v-22.686c0-3.581,2.895-6.481,6.476-6.481
		H85.73c3.581,0,6.481,2.9,6.481,6.481V209.944z M92.212,161.351c0,3.575-2.9,6.476-6.481,6.476H63.063
		c-3.581,0-6.476-2.9-6.476-6.476v-22.695c0-3.578,2.895-6.479,6.476-6.479H85.73c3.581,0,6.481,2.9,6.481,6.479V161.351z
		 M140.787,258.545c0,3.581-2.895,6.481-6.481,6.481h-22.667c-3.575,0-6.476-2.9-6.476-6.481v-22.698c0-3.581,2.9-6.476,6.476-6.476
		h22.667c3.587,0,6.481,2.895,6.481,6.476V258.545z M140.787,209.944c0,3.575-2.895,6.47-6.481,6.47h-22.667
		c-3.575,0-6.476-2.895-6.476-6.47v-22.686c0-3.581,2.9-6.481,6.476-6.481h22.667c3.587,0,6.481,2.9,6.481,6.481V209.944z
		 M140.787,161.351c0,3.575-2.895,6.476-6.481,6.476h-22.667c-3.575,0-6.476-2.9-6.476-6.476v-22.695c0-3.578,2.9-6.479,6.476-6.479
		h22.667c3.587,0,6.481,2.9,6.481,6.479V161.351z M156.979,111.321l-16.192-3.238V90.055c0-3.575-2.895-6.476-6.481-6.476h-22.667
		c-3.575,0-6.476,2.901-6.476,6.476v10.904l-12.951-2.592v-8.313c0-3.575-2.9-6.476-6.481-6.476H63.063
		c-3.581,0-6.476,2.901-6.476,6.476v1.188l-16.198-3.238v-67.55h116.591V111.321z"/>
</g>
</svg>
