<?xml version="1.0" encoding="iso-8859-1"?>
<!-- Generator: Adobe Illustrator 18.1.1, SVG Export Plug-In . SVG Version: 6.00 Build 0)  -->
<svg version="1.1" id="Capa_1" xmlns="http://www.w3.org/2000/svg" xmlns:xlink="http://www.w3.org/1999/xlink" x="0px" y="0px"
	 viewBox="0 0 284.999 284.999" style="enable-background:new 0 0 284.999 284.999;" xml:space="preserve">
<g>
	<g>
		<path d="M42.1,208.913h22.674c3.575,0,6.476-2.895,6.476-6.469v-22.687c0-3.581-2.901-6.481-6.476-6.481H42.1
			c-3.575,0-6.476,2.9-6.476,6.481v22.687C35.624,206.019,38.525,208.913,42.1,208.913z"/>
		<path d="M90.679,208.913h22.671c3.581,0,6.479-2.895,6.479-6.469v-22.687c0-3.581-2.897-6.481-6.479-6.481H90.679
			c-3.575,0-6.476,2.9-6.476,6.481v22.687C84.203,206.019,87.104,208.913,90.679,208.913z"/>
		<path d="M42.1,257.526h22.674c3.575,0,6.476-2.9,6.476-6.481v-22.692c0-3.587-2.901-6.481-6.476-6.481H42.1
			c-3.575,0-6.476,2.895-6.476,6.481v22.692C35.624,254.626,38.525,257.526,42.1,257.526z"/>
		<path d="M90.679,257.526h22.671c3.581,0,6.479-2.9,6.479-6.481v-22.692c0-3.587-2.897-6.481-6.479-6.481H90.679
			c-3.575,0-6.476,2.895-6.476,6.481v22.692C84.203,254.626,87.104,257.526,90.679,257.526z"/>
		<path d="M42.1,160.325h22.674c3.575,0,6.476-2.901,6.476-6.476V131.15c0-3.574-2.901-6.476-6.476-6.476H42.1
			c-3.575,0-6.476,2.901-6.476,6.476v22.699C35.624,157.424,38.525,160.325,42.1,160.325z"/>
		<path d="M90.679,160.325h22.671c3.581,0,6.479-2.901,6.479-6.476V131.15c0-3.574-2.897-6.476-6.479-6.476H90.679
			c-3.575,0-6.476,2.901-6.476,6.476v22.699C84.203,157.424,87.104,160.325,90.679,160.325z"/>
		<path d="M42.1,111.724h22.674c3.575,0,6.476-2.9,6.476-6.481V82.556c0-3.574-2.901-6.469-6.476-6.469H42.1
			c-3.575,0-6.476,2.895-6.476,6.469v22.687C35.624,108.823,38.525,111.724,42.1,111.724z"/>
		<path d="M90.679,111.724h22.671c3.581,0,6.479-2.9,6.479-6.481V82.556c0-3.574-2.897-6.469-6.479-6.469H90.679
			c-3.575,0-6.476,2.895-6.476,6.469v22.687C84.203,108.823,87.104,111.724,90.679,111.724z"/>
		<path d="M42.1,63.129h22.674c3.575,0,6.476-2.895,6.476-6.481V33.955c0-3.581-2.901-6.481-6.476-6.481H42.1
			c-3.575,0-6.476,2.9-6.476,6.481v22.692C35.624,60.234,38.525,63.129,42.1,63.129z"/>
		<path d="M90.679,63.129h22.671c3.581,0,6.479-2.895,6.479-6.481V33.955c0-3.581-2.897-6.481-6.479-6.481H90.679
			c-3.575,0-6.476,2.9-6.476,6.481v22.692C84.203,60.234,87.104,63.129,90.679,63.129z"/>
		<path d="M194.319,173.276h-22.671c-3.581,0-6.479,2.9-6.479,6.481v22.687c0,3.574,2.897,6.469,6.479,6.469h22.671
			c3.575,0,6.476-2.895,6.476-6.469v-22.687C200.795,176.177,197.894,173.276,194.319,173.276z"/>
		<path d="M220.225,173.276c-3.575,0-6.476,2.9-6.476,6.481v22.687c0,3.574,2.901,6.469,6.476,6.469h22.674
			c3.575,0,6.476-2.895,6.476-6.469v-22.687c0-3.581-2.9-6.481-6.476-6.481H220.225z"/>
		<path d="M194.319,221.871h-22.671c-3.581,0-6.479,2.895-6.479,6.481v22.692c0,3.581,2.897,6.481,6.479,6.481h22.671
			c3.575,0,6.476-2.9,6.476-6.481v-22.692C200.795,224.766,197.894,221.871,194.319,221.871z"/>
		<path d="M242.898,221.871h-22.674c-3.575,0-6.476,2.895-6.476,6.481v22.692c0,3.581,2.901,6.481,6.476,6.481h22.674
			c3.575,0,6.476-2.9,6.476-6.481v-22.692C249.374,224.766,246.474,221.871,242.898,221.871z"/>
		<path d="M222.931,124.267c0-4.706-2.022-7.619-6.07-9.834v18.74C220.617,132.598,222.931,128.534,222.931,124.267z"/>
		<path d="M212.429,80.967c-3.872,0.698-5.78,3.563-5.78,7.619c0,3.477,1.054,5.214,5.78,8.975V80.967z"/>
		<path d="M274.939,152.885l-19.442-9.723c7.592-9.154,12.169-20.893,12.169-33.689c0-29.131-23.697-52.825-52.819-52.825
			c-24.897,0-45.774,17.317-51.347,40.511l-14.525-7.261V6.481c0-3.581-2.901-6.481-6.476-6.481H12.953
			C9.378,0,6.474,2.9,6.474,6.481v272.037c0,3.581,2.904,6.481,6.479,6.481h259.092c3.575,0,6.479-2.9,6.479-6.481V158.674
			C278.523,156.225,277.138,153.985,274.939,152.885z M136.023,272.049H19.429V12.951h116.595L136.023,272.049L136.023,272.049z
			 M206.244,108.174c-6.918-4.422-10.607-10.236-10.607-18.326c0-10.118,6.182-17.855,16.792-18.158v-2.493
			c0-1.552,0.687-2.598,2.205-2.598c1.553,0,2.227,1.046,2.227,2.598v2.493c8.767,0,16.016,5.801,16.016,14.59
			c0,3.086-2.122,5.598-5.294,5.598c-4.168,0-5.043-2.512-5.693-5.703c-0.779-3.655-2.919-5.207-5.028-5.207v19l5.606,3.29
			c7.335,4.249,12.233,9.741,12.233,18.796c0,12.382-6.469,19.829-17.84,20.41v7.397c0,1.435-0.674,2.498-2.227,2.498
			c-1.518,0-2.205-1.063-2.205-2.498v-7.397c-10.134,0-17.469-7.453-17.469-17.206c0-3.482,1.645-6.568,5.3-6.568
			c3.38,0,5.217,1.923,5.706,6.383c0.47,4.731,2.412,7.7,6.463,8.102v-21.034L206.244,108.174z M265.569,272.049H148.975V104.383
			l13.087,6.543c0.785,28.463,24.133,51.385,52.785,51.385c11.353,0,21.852-3.637,30.473-9.76l20.25,10.124v109.374H265.569z"/>
	</g>
</g>
<g>
</g>
<g>
</g>
<g>
</g>
<g>
</g>
<g>
</g>
<g>
</g>
<g>
</g>
<g>
</g>
<g>
</g>
<g>
</g>
<g>
</g>
<g>
</g>
<g>
</g>
<g>
</g>
<g>
</g>
</svg>
