<?xml version="1.0" encoding="iso-8859-1"?>
<!-- Generator: Adobe Illustrator 18.1.1, SVG Export Plug-In . SVG Version: 6.00 Build 0)  -->
<svg version="1.1" id="Capa_1" xmlns="http://www.w3.org/2000/svg" xmlns:xlink="http://www.w3.org/1999/xlink" x="0px" y="0px"
	 viewBox="0 0 284.998 284.998" style="enable-background:new 0 0 284.998 284.998;" xml:space="preserve">
<g>
	<g>
		<path d="M158.543,235.649c2.591-3.414,4.199-7.613,4.199-12.221c0-11.158-9.067-20.237-20.243-20.237s-20.243,9.079-20.243,20.237
			c0,4.607,1.608,8.807,4.199,12.221c-12.005-1.756-23.366-5.43-33.8-10.688l-9.401,10.472
			c17.646,9.556,37.814,14.998,59.245,14.998s41.6-5.442,59.245-14.998l-9.401-10.472
			C181.909,230.22,170.548,233.894,158.543,235.649z"/>
		<path d="M81.788,176.478c-7.483-3.444-16.606-2.146-22.767,4.002c-3.241,3.241-5.071,7.316-5.653,11.528
			c-10.811-14.484-18.152-31.636-20.874-50.313c3.402,2.585,7.596,4.187,12.197,4.187c11.17-0.012,20.243-9.055,20.243-20.236
			c0-11.188-9.067-20.243-20.243-20.243c-4.602,0-8.795,1.589-12.197,4.187c2.722-18.678,10.063-35.841,20.874-50.326
			c0.582,4.212,2.412,8.294,5.653,11.522c7.898,7.898,20.731,7.923,28.63,0.013c7.904-7.904,7.886-20.732-0.006-28.624
			c-3.241-3.241-7.311-5.084-11.535-5.672c14.497-10.817,31.648-18.158,50.339-20.88c-2.585,3.401-4.193,7.602-4.193,12.203
			c0,11.17,9.067,20.262,20.243,20.262s20.243-9.092,20.243-20.262c0-4.602-1.608-8.802-4.193-12.203
			c18.69,2.722,35.848,10.063,50.345,20.887c-4.236,0.587-8.318,2.431-11.56,5.684c-7.892,7.886-7.904,20.713,0,28.611
			c7.898,7.91,20.744,7.904,28.63,0.006c3.247-3.24,5.078-7.335,5.653-11.553c10.823,14.484,18.184,31.654,20.887,50.345
			c-3.402-2.604-7.607-4.199-12.222-4.199c-11.164,0-20.23,9.055-20.23,20.236c0,11.188,9.066,20.243,20.23,20.243
			c4.614-0.006,8.813-1.607,12.222-4.205c-2.722,18.69-10.063,35.854-20.887,50.345c-0.581-4.218-2.412-8.307-5.659-11.554
			c-6.154-6.147-15.276-7.44-22.754-4.001l30.534,34.022c20.744-22.29,33.547-52.07,33.547-84.856
			c0-68.815-55.979-124.794-124.786-124.794S17.713,56.819,17.713,125.633c0,32.786,12.803,62.566,33.547,84.856L81.788,176.478z"/>
		<path d="M271.516,257.173h-4.947l-93.912-104.636c6.396-7.168,10.311-16.588,10.311-26.917c0-22.346-18.109-40.461-40.468-40.461
			s-40.468,18.115-40.468,40.461c0,10.329,3.915,19.749,10.311,26.917L18.43,257.173h-4.947C6.043,257.173,0,263.216,0,270.656
			c0,7.453,6.043,13.502,13.483,13.502h40.479c7.453,0,13.489-6.049,13.489-13.502c0-7.212-5.689-13.057-12.833-13.421l82.197-91.58
			c1.855,0.266,3.748,0.458,5.684,0.458s3.828-0.192,5.684-0.458l82.197,91.58c-7.144,0.364-12.833,6.209-12.833,13.421
			c0,7.453,6.036,13.502,13.489,13.502h40.479c7.44,0,13.483-6.049,13.483-13.502C284.999,263.216,278.956,257.173,271.516,257.173z
			"/>
	</g>
</g>
<g>
</g>
<g>
</g>
<g>
</g>
<g>
</g>
<g>
</g>
<g>
</g>
<g>
</g>
<g>
</g>
<g>
</g>
<g>
</g>
<g>
</g>
<g>
</g>
<g>
</g>
<g>
</g>
<g>
</g>
</svg>
