<?xml version="1.0" encoding="utf-8"?>
<!-- Generator: Adobe Illustrator 16.0.0, SVG Export Plug-In . SVG Version: 6.00 Build 0)  -->
<!DOCTYPE svg PUBLIC "-//W3C//DTD SVG 1.1//EN" "http://www.w3.org/Graphics/SVG/1.1/DTD/svg11.dtd">
<svg version="1.1" id="Layer_1" xmlns="http://www.w3.org/2000/svg" xmlns:xlink="http://www.w3.org/1999/xlink" x="0px" y="0px"
	 width="300px" height="300px" viewBox="0 0 300 300" enable-background="new 0 0 300 300" xml:space="preserve">
<g>
	<path d="M56.566,95.529h33.231c1.917,0,3.476-1.54,3.476-3.463c0-1.924-1.559-3.488-3.476-3.488H65.702l78.561-69.865V44.17
		c0,1.924,1.559,3.464,3.476,3.464c1.93,0,3.476-1.54,3.476-3.464V10.964c0-1.899-1.546-3.464-3.476-3.464H114.5
		c-1.93,0-3.476,1.564-3.476,3.464c0,1.923,1.546,3.488,3.476,3.488h24.096L60.042,84.316V58.872c0-1.924-1.565-3.488-3.476-3.488
		c-1.923,0-3.476,1.564-3.476,3.488v33.194C53.091,93.989,54.643,95.529,56.566,95.529z"/>
	<path d="M281.381,122.181l-94.054-80.85c-3.909-3.377-9.679-3.377-13.588,0l-94.047,80.85c-4.373,3.767-4.861,10.335-1.107,14.707
		c2.06,2.412,4.979,3.631,7.91,3.631c2.4,0,4.818-0.829,6.785-2.518l87.25-75.028l87.25,75.028
		c4.373,3.742,10.954,3.272,14.708-1.113C286.243,132.516,285.742,125.947,281.381,122.181z"/>
	<path d="M251.397,231.387c1.911,0,3.476-1.54,3.476-3.463v-88.42c0-0.995-0.452-1.967-1.212-2.622l-70.854-61.156
		c-1.312-1.126-3.247-1.126-4.546,0l-70.854,61.156c-0.773,0.655-1.206,1.627-1.206,2.622v88.42c0,1.923,1.546,3.463,3.476,3.463
		H251.397z M187.854,137.444c0-2.869,2.338-5.22,5.208-5.22h21.957c2.882,0,5.22,2.351,5.22,5.22v21.981
		c0,2.87-2.338,5.22-5.22,5.22h-21.957c-2.87,0-5.208-2.35-5.208-5.22V137.444z M187.854,184.487c0-2.87,2.338-5.221,5.208-5.221
		h21.957c2.882,0,5.22,2.351,5.22,5.221v21.962c0,2.87-2.338,5.221-5.22,5.221h-21.957c-2.87,0-5.208-2.351-5.208-5.221V184.487z
		 M140.823,137.444c0-2.869,2.338-5.22,5.22-5.22h21.95c2.882,0,5.22,2.351,5.22,5.22v21.981c0,2.87-2.338,5.22-5.22,5.22h-21.95
		c-2.882,0-5.22-2.35-5.22-5.22V137.444z M140.823,184.487c0-2.87,2.338-5.221,5.22-5.221h21.95c2.882,0,5.22,2.351,5.22,5.221
		v21.962c0,2.87-2.338,5.221-5.22,5.221h-21.95c-2.882,0-5.22-2.351-5.22-5.221V184.487z"/>
	<path d="M247.822,239.595c-1.361-1.361-3.563-1.361-4.911,0c-1.36,1.36-1.36,3.563,0,4.923l17.553,17.565H100.609l17.553-17.565
		c1.36-1.36,1.36-3.563,0-4.923c-1.361-1.361-3.55-1.361-4.911,0l-23.502,23.502c-0.656,0.668-1.014,1.547-1.014,2.462
		c0,0.94,0.358,1.818,1.014,2.462l23.478,23.453c0.68,0.692,1.559,1.026,2.449,1.026s1.781-0.334,2.461-1.026
		c1.361-1.361,1.361-3.538,0-4.898l-17.553-17.541h159.904l-17.553,17.541c-1.361,1.36-1.361,3.537,0,4.898
		c0.68,0.692,1.571,1.026,2.449,1.026c0.903,0,1.781-0.334,2.461-1.026l23.478-23.453c0.643-0.644,1.014-1.521,1.014-2.462
		c0-0.915-0.371-1.794-1.014-2.462L247.822,239.595z"/>
	<path d="M62.993,154.694c1.348,1.36,3.55,1.36,4.911,0c1.361-1.36,1.361-3.563,0-4.923l-23.478-23.46
		c-1.349-1.36-3.55-1.36-4.911,0l-23.502,23.49c-1.361,1.361-1.361,3.563,0,4.924c0.68,0.668,1.565,1.026,2.461,1.026
		c0.885,0,1.781-0.358,2.449-1.026l17.565-17.553v99.657l-17.565-17.56c-1.348-1.36-3.55-1.36-4.911,0
		c-1.361,1.361-1.361,3.563,0,4.924l23.502,23.496c0.656,0.644,1.534,1.026,2.462,1.026c0.915,0,1.806-0.383,2.449-1.026
		l23.478-23.466c1.361-1.36,1.361-3.563,0-4.923c-1.36-1.36-3.563-1.36-4.911,0L45.44,236.854v-99.707L62.993,154.694z"/>
</g>
</svg>
