<?xml version="1.0" encoding="iso-8859-1"?>
<!-- Generator: Adobe Illustrator 18.1.1, SVG Export Plug-In . SVG Version: 6.00 Build 0)  -->
<svg version="1.1" id="Capa_1" xmlns="http://www.w3.org/2000/svg" xmlns:xlink="http://www.w3.org/1999/xlink" x="0px" y="0px"
	 viewBox="0 0 284.999 284.999" style="enable-background:new 0 0 284.999 284.999;" xml:space="preserve">
<g>
	<g>
		<path d="M235.311,203.562c12.085-5.164,25.853-14.788,29.471-32.434c1.757-8.535,0.105-16.675-4.539-22.353
			c-4.169-5.121-10.49-7.935-17.782-7.935h-13.056l3.222-21.876c0.26-0.996,0.384-2.029,0.384-3.037
			c0-19.068-45.527-29.044-90.51-29.044s-90.51,9.976-90.51,29.044c0,1.008,0.124,2.041,0.384,3.037l16.686,113.525
			c0.779,17.169,46.399,21.777,73.439,21.777s72.66-4.608,73.439-21.777l3.531-23.967c2.282-0.451,5.394-1.218,8.975-2.368
			l-4.008,27.176c-1.738,26.57-57.674,29.465-81.938,29.465S62.3,259.9,60.561,233.33l-4.614-31.357
			c-35.26,8.461-55.193,21.635-55.193,36.905c0.001,29.966,73.025,46.121,141.746,46.121s141.745-16.155,141.745-46.121
			C284.245,224.548,266.655,212.048,235.311,203.562z M142.5,117.636c25.457,0,49.09,3.266,64.446,8.604
			c-13.73,4.645-35.811,8.467-64.446,8.467s-50.716-3.822-64.446-8.467C93.417,120.901,117.043,117.636,142.5,117.636z
			 M227.901,151.096h14.559c4.219,0,7.639,1.429,9.853,4.156c2.672,3.284,3.563,8.325,2.431,13.812
			c-3.729,18.264-23.162,25.772-33.683,28.543L227.901,151.096z"/>
		<path d="M105.051,58.112c-3.655,3.056-8.672,7.23-8.672,15.326c0,2.826,2.313,5.115,5.14,5.115c2.82,0,5.115-2.289,5.115-5.115
			c0-3.173,1.62-4.651,4.991-7.459c3.661-3.056,8.671-7.236,8.671-15.326s-5.01-12.265-8.671-15.32
			c-3.371-2.808-4.991-4.311-4.991-7.465c0-3.142,1.62-4.645,4.985-7.44c3.655-3.049,8.677-7.23,8.677-15.313
			c0-2.827-2.294-5.115-5.121-5.115c-2.82,0-5.133,2.288-5.133,5.115c0,3.16-1.603,4.645-4.985,7.446
			c-3.661,3.049-8.678,7.224-8.678,15.308c0,8.096,5.017,12.277,8.672,15.332c3.389,2.802,4.991,4.305,4.991,7.453
			S108.439,55.305,105.051,58.112z"/>
		<path d="M139.216,58.112c-3.655,3.056-8.671,7.23-8.671,15.326c0,2.826,2.288,5.115,5.114,5.115c2.846,0,5.134-2.289,5.134-5.115
			c0-3.173,1.627-4.651,4.991-7.459c3.661-3.056,8.671-7.236,8.671-15.326s-5.01-12.265-8.671-15.32
			c-3.364-2.808-4.991-4.311-4.991-7.465c0-3.142,1.627-4.645,4.985-7.44c3.661-3.049,8.677-7.23,8.677-15.313
			c0-2.827-2.288-5.115-5.114-5.115c-2.846,0-5.134,2.288-5.134,5.115c0,3.16-1.627,4.645-4.985,7.446
			c-3.661,3.049-8.677,7.224-8.677,15.308c0,8.096,5.016,12.277,8.671,15.332c3.364,2.802,4.991,4.305,4.991,7.453
			S142.58,55.305,139.216,58.112z"/>
		<path d="M173.375,58.112c-3.649,3.056-8.671,7.23-8.671,15.326c0,2.826,2.294,5.115,5.121,5.115c2.82,0,5.133-2.289,5.133-5.115
			c0-3.173,1.603-4.651,4.991-7.459c3.662-3.056,8.672-7.236,8.672-15.326s-5.01-12.265-8.672-15.32
			c-3.389-2.808-4.991-4.311-4.991-7.465c0-3.142,1.603-4.645,4.985-7.44c3.661-3.049,8.678-7.23,8.678-15.313
			c0-2.827-2.313-5.115-5.14-5.115c-2.82,0-5.115,2.288-5.115,5.115c0,3.16-1.62,4.645-4.985,7.446
			c-3.655,3.049-8.677,7.224-8.677,15.308c0,8.096,5.021,12.277,8.671,15.332c3.371,2.802,4.991,4.305,4.991,7.453
			S176.746,55.305,173.375,58.112z"/>
	</g>
</g>
<g>
</g>
<g>
</g>
<g>
</g>
<g>
</g>
<g>
</g>
<g>
</g>
<g>
</g>
<g>
</g>
<g>
</g>
<g>
</g>
<g>
</g>
<g>
</g>
<g>
</g>
<g>
</g>
<g>
</g>
</svg>
