<?xml version="1.0" encoding="utf-8"?>
<!-- Generator: Adobe Illustrator 16.0.0, SVG Export Plug-In . SVG Version: 6.00 Build 0)  -->
<!DOCTYPE svg PUBLIC "-//W3C//DTD SVG 1.1//EN" "http://www.w3.org/Graphics/SVG/1.1/DTD/svg11.dtd">
<svg version="1.1" id="Layer_1" xmlns="http://www.w3.org/2000/svg" xmlns:xlink="http://www.w3.org/1999/xlink" x="0px" y="0px"
	 width="300px" height="300px" viewBox="0 0 300 300" enable-background="new 0 0 300 300" xml:space="preserve">
<g>
	<path d="M154.23,65.423c-2.437-2.103-6.024-2.103-8.461,0l-97.622,84.201c-1.423,1.225-2.245,3.019-2.245,4.911v121.768
		c0,3.588,2.9,6.482,6.476,6.482h195.244c3.575,0,6.476-2.895,6.476-6.482V154.535c0-1.893-0.822-3.687-2.245-4.911L154.23,65.423z
		 M241.141,269.834H58.859V157.491L150,78.869l91.141,78.622V269.834z"/>
	<path d="M287.991,131.75L158.449,20.348c-4.861-4.169-12.036-4.169-16.897,0L12.009,131.75c-5.424,4.663-6.042,12.84-1.379,18.27
		c4.676,5.418,12.852,6.037,18.27,1.373L150,47.252l121.1,104.141c2.449,2.104,5.449,3.143,8.436,3.143
		c3.649,0,7.273-1.534,9.834-4.516C294.034,144.59,293.415,136.413,287.991,131.75z"/>
	<path d="M118.581,138.306c-15.908,0-33.807,8.696-36.33,33.077c-5.06,48.897,63.321,85.537,66.228,87.083
		c0.476,0.247,0.996,0.371,1.515,0.371c0.514,0,1.039-0.124,1.516-0.371c2.907-1.546,71.287-38.186,66.24-87.083
		c-2.517-24.381-20.422-33.077-36.336-33.077c-11.275,0-22.804,3.995-31.419,10.774
		C141.378,142.301,129.844,138.306,118.581,138.306z"/>
</g>
</svg>
