<?xml version="1.0" encoding="iso-8859-1"?>
<!-- Generator: Adobe Illustrator 18.1.1, SVG Export Plug-In . SVG Version: 6.00 Build 0)  -->
<svg version="1.1" id="Capa_1" xmlns="http://www.w3.org/2000/svg" xmlns:xlink="http://www.w3.org/1999/xlink" x="0px" y="0px"
	 viewBox="0 0 285 285" style="enable-background:new 0 0 285 285;" xml:space="preserve">
<g>
	<g>
		<path d="M272.049,48.576H12.951C5.802,48.576,0,54.384,0,61.533v161.934c0,7.149,5.802,12.957,12.951,12.957h259.098
			c7.149,0,12.951-5.808,12.951-12.957V61.533C285,54.384,279.198,48.576,272.049,48.576z M259.092,210.516H25.908V74.484h233.184
			V210.516z"/>
		<path d="M89.081,192.722c13.421,0,26.02-5.227,35.501-14.702c4.503-4.49,8.01-9.71,10.49-15.363l28.029,0.007
			c1.794,0,3.495-0.742,4.726-2.054l6.234-6.643l6.185,6.63c1.225,1.306,2.938,2.06,4.731,2.06c1.794,0,3.507-0.748,4.731-2.053
			l6.21-6.637l6.216,6.637c1.219,1.305,2.938,2.053,4.731,2.053c0,0,0,0,0.006,0c1.781,0,3.501-0.754,4.726-2.06l6.185-6.63
			l6.247,6.643c1.286,1.373,3.13,2.165,4.979,2.041c1.874-0.08,3.631-0.965,4.8-2.437l10.916-13.669
			c2.196-2.759,1.788-6.754-0.921-9.018l-16.415-13.669c-1.163-0.971-2.635-1.503-4.144-1.503h-88.203
			c-7.774-17.683-25.438-30.077-45.96-30.077c-27.678,0-50.209,22.532-50.222,50.234C38.866,170.196,61.397,192.722,89.081,192.722z
			 M213.292,132.196c2.679,0,4.855,2.177,4.855,4.861c0,2.678-2.177,4.854-4.855,4.854h-74.026c-0.044-3.327-0.39-6.568-1.052-9.716
			L213.292,132.196L213.292,132.196z M67.229,128.831c7.533,0.007,13.663,6.148,13.669,13.669
			c-0.006,7.546-6.136,13.675-13.669,13.675c-7.558-0.006-13.668-6.136-13.662-13.675C53.567,134.979,59.672,128.844,67.229,128.831
			z"/>
		<path d="M152.241,107.901h80.478c5.369,0,9.717-4.348,9.717-9.71c0-5.368-4.348-9.717-9.717-9.717h-80.478
			c-5.368,0-9.717,4.349-9.717,9.717C142.524,103.554,146.873,107.901,152.241,107.901z"/>
	</g>
</g>
<g>
</g>
<g>
</g>
<g>
</g>
<g>
</g>
<g>
</g>
<g>
</g>
<g>
</g>
<g>
</g>
<g>
</g>
<g>
</g>
<g>
</g>
<g>
</g>
<g>
</g>
<g>
</g>
<g>
</g>
</svg>
