<?xml version="1.0" encoding="utf-8"?>
<!-- Generator: Adobe Illustrator 16.0.0, SVG Export Plug-In . SVG Version: 6.00 Build 0)  -->
<!DOCTYPE svg PUBLIC "-//W3C//DTD SVG 1.1//EN" "http://www.w3.org/Graphics/SVG/1.1/DTD/svg11.dtd">
<svg version="1.1" id="Layer_1" xmlns="http://www.w3.org/2000/svg" xmlns:xlink="http://www.w3.org/1999/xlink" x="0px" y="0px"
	 width="300px" height="300px" viewBox="0 0 300 300" enable-background="new 0 0 300 300" xml:space="preserve">
<g>
	<path d="M175.909,54.837c3.577,0,6.477-2.901,6.477-6.478c0-5.901,4.805-10.706,10.712-10.706c5.912,0,10.722,4.804,10.722,10.706
		v83.151c0,3.577,2.9,6.478,6.478,6.478s6.477-2.901,6.477-6.478v-19.492h56.293v28.126c0,3.577,2.901,6.477,6.477,6.477
		c3.577,0,6.478-2.9,6.478-6.477V48.359c0-13.046-10.617-23.661-23.667-23.661c-13.053,0-23.673,10.614-23.673,23.661
		c0,3.577,2.9,6.478,6.477,6.478c3.578,0,6.478-2.901,6.478-6.478c0-5.901,4.807-10.706,10.719-10.706
		c5.908,0,10.712,4.804,10.712,10.706v50.705h-56.293V48.359c0-13.046-10.62-23.661-23.676-23.661
		c-13.049,0-23.667,10.614-23.667,23.661C169.432,51.936,172.332,54.837,175.909,54.837z"/>
	<path d="M20.455,137.119c62.277,0,92.614,12.135,124.735,24.982c32.98,13.194,67.087,26.835,134.355,26.835
		c7.154,0,12.955-5.8,12.955-12.955c0-7.153-5.801-12.954-12.955-12.954c-62.277,0-92.614-12.135-124.735-24.982
		c-32.981-13.195-67.087-26.836-134.355-26.836c-7.154,0-12.955,5.8-12.955,12.954S13.301,137.119,20.455,137.119z"/>
	<path d="M279.545,206.208c-62.277,0-92.614-12.135-124.735-24.982C121.829,168.03,87.723,154.39,20.455,154.39
		c-7.154,0-12.955,5.801-12.955,12.955c0,7.154,5.801,12.955,12.955,12.955c62.277,0,92.614,12.135,124.735,24.983
		c32.98,13.195,67.087,26.835,134.355,26.835c7.154,0,12.955-5.8,12.955-12.955S286.699,206.208,279.545,206.208z"/>
	<path d="M279.545,249.392c-62.277,0-92.614-12.136-124.735-24.983c-32.981-13.195-67.087-26.835-134.355-26.835
		c-7.154,0-12.955,5.8-12.955,12.954s5.801,12.955,12.955,12.955c62.277,0,92.614,12.136,124.735,24.982
		c32.98,13.195,67.087,26.836,134.355,26.836c7.154,0,12.955-5.801,12.955-12.955S286.699,249.392,279.545,249.392z"/>
</g>
</svg>
