<?xml version="1.0" encoding="iso-8859-1"?>
<!-- Generator: Adobe Illustrator 18.1.1, SVG Export Plug-In . SVG Version: 6.00 Build 0)  -->
<svg version="1.1" id="Capa_1" xmlns="http://www.w3.org/2000/svg" xmlns:xlink="http://www.w3.org/1999/xlink" x="0px" y="0px"
	 viewBox="0 0 285.001 285.001" style="enable-background:new 0 0 285.001 285.001;" xml:space="preserve">
<g>
	<g>
		<rect x="76.99" y="84.149" width="23.614" height="27.143"/>
		<rect x="184.396" y="84.149" width="23.614" height="27.143"/>
		<rect x="76.99" y="214.428" width="23.614" height="27.143"/>
		<rect x="184.396" y="214.428" width="23.614" height="27.143"/>
		<path d="M40.95,9.578c-1.225-2.065-3.433-3.331-5.845-3.331c-2.394,0-4.614,1.265-5.838,3.331L0.953,57.425
			C0.322,58.467,0,59.664,0,60.873v211.094c0,3.748,3.043,6.788,6.791,6.788H63.42c3.748,0,6.779-3.04,6.779-6.788V60.873
			c0-1.209-0.322-2.406-0.94-3.448L40.95,9.578z"/>
		<path d="M148.338,9.578c-2.443-4.131-9.234-4.131-11.677,0l-28.327,47.847c-0.618,1.042-0.94,2.239-0.94,3.448v211.094
			c0,3.748,3.037,6.788,6.779,6.788h56.653c3.742,0,6.779-3.04,6.779-6.788V60.873c0-1.209-0.322-2.406-0.946-3.448L148.338,9.578z"
			/>
		<path d="M284.048,57.425L255.734,9.578c-2.449-4.134-9.247-4.128-11.684,0l-28.308,47.847c-0.619,1.042-0.94,2.239-0.94,3.448
			v211.094c0,3.748,3.031,6.788,6.779,6.788h56.629c3.748,0,6.791-3.04,6.791-6.788V60.873
			C285,59.664,284.679,58.467,284.048,57.425z"/>
	</g>
</g>
<g>
</g>
<g>
</g>
<g>
</g>
<g>
</g>
<g>
</g>
<g>
</g>
<g>
</g>
<g>
</g>
<g>
</g>
<g>
</g>
<g>
</g>
<g>
</g>
<g>
</g>
<g>
</g>
<g>
</g>
</svg>
