<?xml version="1.0" encoding="iso-8859-1"?>
<!-- Generator: Adobe Illustrator 18.1.1, SVG Export Plug-In . SVG Version: 6.00 Build 0)  -->
<svg version="1.1" id="Capa_1" xmlns="http://www.w3.org/2000/svg" xmlns:xlink="http://www.w3.org/1999/xlink" x="0px" y="0px"
	 viewBox="0 0 285.001 285.001" style="enable-background:new 0 0 285.001 285.001;" xml:space="preserve">
<g>
	<g>
		<path d="M146.73,57.92c-2.437-2.103-6.024-2.103-8.461,0l-97.622,84.201c-1.423,1.225-2.245,3.019-2.245,4.911V268.8
			c0,3.588,2.9,6.482,6.476,6.482h195.244c3.575,0,6.476-2.895,6.476-6.482V147.032c0-1.893-0.822-3.687-2.245-4.911L146.73,57.92z
			 M233.641,262.331H51.359V149.988L142.5,71.366l91.141,78.622L233.641,262.331L233.641,262.331z"/>
		<path d="M280.491,124.247L150.949,12.845c-4.861-4.169-12.036-4.169-16.897,0L4.509,124.247c-5.424,4.663-6.042,12.84-1.379,18.27
			c4.676,5.418,12.852,6.037,18.27,1.373L142.5,39.749L263.6,143.89c2.449,2.104,5.449,3.143,8.436,3.143
			c3.649,0,7.273-1.534,9.834-4.516C286.534,137.087,285.915,128.91,280.491,124.247z"/>
		<path d="M111.081,130.803c-15.908,0-33.807,8.696-36.33,33.077c-5.06,48.897,63.321,85.537,66.228,87.083
			c0.476,0.247,0.996,0.371,1.515,0.371c0.514,0,1.039-0.124,1.516-0.371c2.907-1.546,71.287-38.186,66.24-87.083
			c-2.517-24.381-20.422-33.077-36.336-33.077c-11.275,0-22.804,3.995-31.419,10.774
			C133.878,134.798,122.344,130.803,111.081,130.803z"/>
	</g>
</g>
<g>
</g>
<g>
</g>
<g>
</g>
<g>
</g>
<g>
</g>
<g>
</g>
<g>
</g>
<g>
</g>
<g>
</g>
<g>
</g>
<g>
</g>
<g>
</g>
<g>
</g>
<g>
</g>
<g>
</g>
</svg>
