<?xml version="1.0" encoding="iso-8859-1"?>
<!-- Generator: Adobe Illustrator 18.1.1, SVG Export Plug-In . SVG Version: 6.00 Build 0)  -->
<svg version="1.1" id="Capa_1" xmlns="http://www.w3.org/2000/svg" xmlns:xlink="http://www.w3.org/1999/xlink" x="0px" y="0px"
	 viewBox="0 0 285.001 285.001" style="enable-background:new 0 0 285.001 285.001;" xml:space="preserve">
<g>
	<g>
		<path d="M243.581,158.243h-28.778c-3.593,0-6.513,2.913-6.513,6.513s2.919,6.513,6.513,6.513h12.735l-65.542,63.692H19.007
			c-3.606,0-6.519,2.919-6.519,6.519c0,3.581,2.913,6.513,6.519,6.513h145.636c1.695,0,3.321-0.668,4.54-1.855l67.885-65.968v13.322
			c0,3.605,2.919,6.519,6.513,6.519c3.606,0,6.519-2.913,6.519-6.519v-28.735C250.1,161.156,247.187,158.243,243.581,158.243z"/>
		<path d="M223.628,69.125c0,3.494,1.058,5.248,5.82,9.027v-16.69C225.552,62.158,223.628,65.058,223.628,69.125z"/>
		<path d="M233.901,95.126v18.846c3.772-0.587,6.11-4.673,6.11-8.953C240.012,100.278,237.971,97.353,233.901,95.126z"/>
		<path d="M231.873,37.007c-29.31,0-53.153,23.83-53.153,53.122c0,29.301,23.843,53.144,53.153,53.144
			c29.292,0,53.128-23.843,53.128-53.144C285.001,60.837,261.164,37.007,231.873,37.007z M233.901,123.311v7.44
			c0,1.447-0.668,2.511-2.239,2.511c-1.534,0-2.214-1.063-2.214-2.511v-7.44c-10.205,0-17.578-7.49-17.578-17.302
			c0-3.501,1.658-6.612,5.344-6.612c3.389,0,5.232,1.933,5.727,6.417c0.47,4.76,2.425,7.75,6.507,8.158V92.813l-6.222-3.983
			c-6.964-4.456-10.675-10.301-10.675-18.44c0-10.177,6.222-17.949,16.897-18.251v-2.505c0-1.562,0.68-2.625,2.214-2.625
			c1.571,0,2.239,1.063,2.239,2.625v2.505c8.819,0,16.105,5.832,16.105,14.67c0,3.108-2.128,5.631-5.325,5.631
			c-4.188,0-5.065-2.523-5.721-5.727c-0.786-3.692-2.932-5.251-5.059-5.251V80.57l5.641,3.315
			c7.372,4.268,12.308,9.788,12.308,18.907C251.85,115.24,245.343,122.727,233.901,123.311z"/>
		<path d="M91.203,82.948l75.06,64.533c1.843,1.59,4.119,2.362,6.371,2.362c2.746,0,5.479-1.156,7.409-3.401
			c3.525-4.091,3.056-10.258-1.039-13.78l-81.43-70.01c-3.662-3.145-9.08-3.145-12.741,0l-81.43,70.01
			c-4.095,3.522-4.559,9.688-1.039,13.78c3.513,4.088,9.686,4.564,13.78,1.039L91.203,82.948z"/>
		<path d="M89.076,92.825l-61.355,52.944c-0.717,0.618-1.125,1.519-1.125,2.464v76.555c0,1.793,1.459,3.253,3.259,3.253h122.703
			c1.806,0,3.259-1.46,3.259-3.253v-76.555c0-0.945-0.415-1.846-1.132-2.464L93.331,92.826C92.112,91.774,90.3,91.774,89.076,92.825
			z M85.241,206.188c0,2.685-2.189,4.88-4.886,4.88H61.342c-2.696,0-4.886-2.195-4.886-4.88v-19.024c0-2.69,2.189-4.88,4.886-4.88
			h19.013c2.696,0,4.886,2.189,4.886,4.88C85.241,187.164,85.241,206.188,85.241,206.188z M85.241,165.474
			c0,2.69-2.189,4.88-4.886,4.88H61.342c-2.696,0-4.886-2.189-4.886-4.88v-19.04c0-2.697,2.189-4.887,4.886-4.887h19.013
			c2.696,0,4.886,2.189,4.886,4.887C85.241,146.434,85.241,165.474,85.241,165.474z M97.172,146.434
			c0-2.697,2.189-4.887,4.886-4.887h19.006c2.697,0,4.886,2.189,4.886,4.887v19.04c0,2.69-2.189,4.88-4.886,4.88h-19.006
			c-2.696,0-4.886-2.189-4.886-4.88C97.172,165.474,97.172,146.434,97.172,146.434z M97.172,187.164c0-2.69,2.189-4.88,4.886-4.88
			h19.006c2.697,0,4.886,2.189,4.886,4.88v19.024c0,2.685-2.189,4.88-4.886,4.88h-19.006c-2.696,0-4.886-2.195-4.886-4.88
			C97.172,206.188,97.172,187.164,97.172,187.164z"/>
	</g>
</g>
<g>
</g>
<g>
</g>
<g>
</g>
<g>
</g>
<g>
</g>
<g>
</g>
<g>
</g>
<g>
</g>
<g>
</g>
<g>
</g>
<g>
</g>
<g>
</g>
<g>
</g>
<g>
</g>
<g>
</g>
</svg>
