<?xml version="1.0" encoding="utf-8"?>
<!-- Generator: Adobe Illustrator 16.0.0, SVG Export Plug-In . SVG Version: 6.00 Build 0)  -->
<!DOCTYPE svg PUBLIC "-//W3C//DTD SVG 1.1//EN" "http://www.w3.org/Graphics/SVG/1.1/DTD/svg11.dtd">
<svg version="1.1" id="Layer_1" xmlns="http://www.w3.org/2000/svg" xmlns:xlink="http://www.w3.org/1999/xlink" x="0px" y="0px"
	 width="300px" height="300px" viewBox="0 0 300 300" enable-background="new 0 0 300 300" xml:space="preserve">
<g>
	<path d="M92.109,136.824h115.781c9.815,0,17.813-7.966,17.813-17.813V41.58c0-9.85-7.997-17.813-17.813-17.813H92.109
		c-9.815,0-17.813,7.963-17.813,17.813v77.432C74.297,128.858,82.294,136.824,92.109,136.824z"/>
	<path d="M265.781,89.201c-14.757,0-26.719,11.965-26.719,26.719v38.578c-4.373-1.868-9.142-2.953-14.176-2.953H75.113
		c-5.034,0-9.803,1.085-14.176,2.953v-38.578c0-14.754-11.962-26.719-26.719-26.719S7.5,101.166,7.5,115.919v115.781
		c0,14.754,11.962,26.719,26.719,26.719h3.13c0,9.85,7.997,17.813,17.813,17.813c9.877,0,17.813-7.963,17.813-17.813h154.065
		c0,9.85,7.929,17.813,17.813,17.813c9.81,0,17.813-7.963,17.813-17.813h3.117c14.757,0,26.719-11.965,26.719-26.719V115.919
		C292.5,101.166,280.538,89.201,265.781,89.201z"/>
</g>
</svg>
