<?xml version="1.0" encoding="utf-8"?>
<!-- Generator: Adobe Illustrator 16.0.0, SVG Export Plug-In . SVG Version: 6.00 Build 0)  -->
<!DOCTYPE svg PUBLIC "-//W3C//DTD SVG 1.1//EN" "http://www.w3.org/Graphics/SVG/1.1/DTD/svg11.dtd">
<svg version="1.1" id="Layer_1" xmlns="http://www.w3.org/2000/svg" xmlns:xlink="http://www.w3.org/1999/xlink" x="0px" y="0px"
	 width="300px" height="300px" viewBox="0 0 300 300" enable-background="new 0 0 300 300" xml:space="preserve">
<g>
	<path d="M279.546,36.651H20.454c-7.156,0-12.954,5.795-12.954,12.951v161.926c0,7.162,5.798,12.951,12.954,12.951h259.092
		c7.156,0,12.954-5.789,12.954-12.951V49.602C292.5,42.446,286.702,36.651,279.546,36.651z M266.592,198.571H33.409V62.553h233.183
		V198.571z"/>
	<path d="M230.967,237.438H69.034c-7.153,0-12.955,5.808-12.955,12.951c0,7.168,5.802,12.963,12.955,12.963h161.933
		c7.152,0,12.954-5.795,12.954-12.963C243.921,243.245,238.119,237.438,230.967,237.438z"/>
	<path d="M113.698,146.94c0-1.571-1.274-2.845-2.848-2.845h-9.976c-1.556,0-2.848,1.274-2.848,2.845v9.982
		c0,1.571,1.292,2.839,2.848,2.839h9.976c1.574,0,2.848-1.268,2.848-2.839V146.94z"/>
	<path d="M110.85,165.451h-9.976c-1.556,0-2.848,1.28-2.848,2.852v9.976c0,1.59,1.292,2.852,2.848,2.852h9.976
		c1.574,0,2.848-1.262,2.848-2.852v-9.976C113.698,166.731,112.424,165.451,110.85,165.451z"/>
	<path d="M113.698,125.577c0-1.571-1.274-2.845-2.848-2.845h-9.976c-1.556,0-2.848,1.274-2.848,2.845v9.976
		c0,1.577,1.292,2.852,2.848,2.852h9.976c1.574,0,2.848-1.274,2.848-2.852V125.577z"/>
	<path d="M113.698,104.208c0-1.565-1.274-2.845-2.848-2.845h-9.976c-1.556,0-2.848,1.28-2.848,2.845v9.976
		c0,1.583,1.292,2.857,2.848,2.857h9.976c1.574,0,2.848-1.274,2.848-2.857V104.208z"/>
	<path d="M113.698,82.852c0-1.571-1.274-2.845-2.848-2.845h-9.976c-1.556,0-2.848,1.274-2.848,2.845v9.97
		c0,1.577,1.292,2.845,2.848,2.845h9.976c1.574,0,2.848-1.268,2.848-2.845V82.852z"/>
	<path d="M119.394,114.185c0,1.583,1.271,2.857,2.845,2.857h9.97c1.559,0,2.845-1.274,2.845-2.857v-9.976
		c0-1.565-1.287-2.845-2.845-2.845h-9.97c-1.574,0-2.845,1.28-2.845,2.845V114.185z"/>
	<path d="M122.239,95.667h9.97c1.559,0,2.845-1.268,2.845-2.845v-9.97c0-1.571-1.287-2.845-2.845-2.845h-9.97
		c-1.574,0-2.845,1.274-2.845,2.845v9.97C119.394,94.399,120.665,95.667,122.239,95.667z"/>
	<path d="M88.074,193.196h39.528c-0.322-0.884-0.538-1.824-0.538-2.832v-2.857H90.922V73.624h51.245v44.482l5.693-4.893v-42.44
		c0-1.565-1.268-2.845-2.845-2.845H88.074c-1.574,0-2.848,1.28-2.848,2.845v119.591C85.226,191.929,86.5,193.196,88.074,193.196z"/>
	<path d="M121.846,148.721c1.534,1.806,4.237,1.998,6.024,0.458l39.92-34.338l39.933,34.338c0.798,0.693,1.788,1.039,2.783,1.039
		c1.203,0,2.391-0.507,3.235-1.497c1.537-1.781,1.333-4.49-0.452-6.024l-42.713-36.726c-1.599-1.386-3.961-1.386-5.569,0
		l-42.704,36.726C120.514,144.231,120.313,146.94,121.846,148.721z"/>
	<path d="M169.659,120.295c-1.073-0.922-2.656-0.922-3.727,0l-32.174,27.77c-0.634,0.532-1.002,1.324-1.002,2.152v40.146
		c0,1.564,1.293,2.832,2.845,2.832h64.369c1.577,0,2.848-1.268,2.848-2.832v-40.146c0-0.829-0.358-1.621-0.98-2.152L169.659,120.295
		z M164.946,180.623c0,1.552-1.271,2.832-2.848,2.832h-9.958c-1.577,0-2.848-1.28-2.848-2.832v-9.982
		c0-1.577,1.271-2.857,2.848-2.857h9.958c1.577,0,2.848,1.28,2.848,2.857V180.623z M164.946,159.267
		c0,1.559-1.271,2.839-2.848,2.839h-9.958c-1.577,0-2.848-1.28-2.848-2.839v-9.989c0-1.577,1.271-2.845,2.848-2.845h9.958
		c1.577,0,2.848,1.268,2.848,2.845V159.267z M186.302,180.623c0,1.552-1.274,2.832-2.845,2.832h-9.97
		c-1.562,0-2.845-1.28-2.845-2.832v-9.982c0-1.577,1.283-2.857,2.845-2.857h9.97c1.571,0,2.845,1.28,2.845,2.857V180.623z
		 M186.302,159.267c0,1.559-1.274,2.839-2.845,2.839h-9.97c-1.562,0-2.845-1.28-2.845-2.839v-9.989c0-1.577,1.283-2.845,2.845-2.845
		h9.97c1.571,0,2.845,1.268,2.845,2.845V159.267z"/>
</g>
</svg>
