<?xml version="1.0" encoding="utf-8"?>
<!-- Generator: Adobe Illustrator 16.0.0, SVG Export Plug-In . SVG Version: 6.00 Build 0)  -->
<!DOCTYPE svg PUBLIC "-//W3C//DTD SVG 1.1//EN" "http://www.w3.org/Graphics/SVG/1.1/DTD/svg11.dtd">
<svg version="1.1" id="Layer_1" xmlns="http://www.w3.org/2000/svg" xmlns:xlink="http://www.w3.org/1999/xlink" x="0px" y="0px"
	 width="300px" height="300px" viewBox="0 0 300 300" enable-background="new 0 0 300 300" xml:space="preserve">
<g>
	<path d="M150,7.5C71.434,7.5,7.5,71.434,7.5,150S71.434,292.5,150,292.5S292.5,228.566,292.5,150S228.566,7.5,150,7.5z
		 M150,278.924c-71.083,0-128.924-57.841-128.924-128.924S78.917,21.076,150,21.076S278.924,78.917,278.924,150
		S221.083,278.924,150,278.924z"/>
	<path d="M160.638,70.419h-54.501c-12.586,0-20.831,4.991-20.831,20.843v120.507c0,10.632,6.928,17.807,17.788,17.807
		c10.854,0,17.807-7.175,17.807-17.807v-42.336h39.515c34.524,0,54.279-21.065,54.279-49.504
		C214.694,85.183,190.61,70.419,160.638,70.419z M154.132,142.083H120.9V97.769h29.545c17.584,0,28.661,6.525,28.661,22.16
		C179.106,133.381,168.456,142.083,154.132,142.083z"/>
</g>
</svg>
