<?xml version="1.0" encoding="iso-8859-1"?>
<!-- Generator: Adobe Illustrator 18.1.1, SVG Export Plug-In . SVG Version: 6.00 Build 0)  -->
<svg version="1.1" id="Capa_1" xmlns="http://www.w3.org/2000/svg" xmlns:xlink="http://www.w3.org/1999/xlink" x="0px" y="0px"
	 viewBox="0 0 285 285" style="enable-background:new 0 0 285 285;" xml:space="preserve">
<g>
	<g>
		<path d="M280.491,124.247L150.945,12.844c-4.855-4.168-12.036-4.168-16.891,0L4.508,124.247c-5.424,4.663-6.042,12.84-1.373,18.27
			c4.664,5.418,12.84,6.037,18.267,1.373L142.5,39.748L263.598,143.89c2.449,2.104,5.452,3.143,8.442,3.143
			c3.643,0,7.267-1.534,9.824-4.516C286.534,137.087,285.916,128.91,280.491,124.247z"/>
		<path d="M146.733,57.92c-2.437-2.103-6.03-2.103-8.467,0l-97.62,84.201c-1.426,1.225-2.245,3.019-2.245,4.911v121.769
			c0,3.587,2.901,6.481,6.482,6.481h195.232c3.581,0,6.482-2.895,6.482-6.481V147.032c0-1.893-0.819-3.687-2.245-4.911
			L146.733,57.92z M155.739,234.436c0,7.076-2.904,13.236-13.239,13.236c-10.341,0-13.239-6.16-13.239-13.236v-73.093
			c0-7.063,2.897-13.235,13.239-13.235c10.335,0,13.239,6.172,13.239,13.235V234.436z M142.5,139.226
			c-7.617,0-13.783-6.173-13.783-13.78c0-7.619,6.167-13.779,13.783-13.779c7.614,0,13.783,6.16,13.783,13.779
			C156.283,133.054,150.114,139.226,142.5,139.226z"/>
	</g>
</g>
<g>
</g>
<g>
</g>
<g>
</g>
<g>
</g>
<g>
</g>
<g>
</g>
<g>
</g>
<g>
</g>
<g>
</g>
<g>
</g>
<g>
</g>
<g>
</g>
<g>
</g>
<g>
</g>
<g>
</g>
</svg>
