<?xml version="1.0" encoding="utf-8"?>
<!-- Generator: Adobe Illustrator 16.0.0, SVG Export Plug-In . SVG Version: 6.00 Build 0)  -->
<!DOCTYPE svg PUBLIC "-//W3C//DTD SVG 1.1//EN" "http://www.w3.org/Graphics/SVG/1.1/DTD/svg11.dtd">
<svg version="1.1" id="Layer_1" xmlns="http://www.w3.org/2000/svg" xmlns:xlink="http://www.w3.org/1999/xlink" x="0px" y="0px"
	 width="300px" height="300px" viewBox="0 0 300 300" enable-background="new 0 0 300 300" xml:space="preserve">
<g>
	<path d="M287.991,131.75L158.445,20.347c-4.855-4.168-12.036-4.168-16.891,0L12.008,131.75c-5.424,4.663-6.042,12.84-1.373,18.27
		c4.664,5.418,12.84,6.037,18.267,1.373L150,47.251l121.098,104.142c2.449,2.104,5.452,3.143,8.442,3.143
		c3.643,0,7.267-1.534,9.824-4.516C294.034,144.59,293.416,136.413,287.991,131.75z"/>
	<path d="M154.233,65.423c-2.437-2.103-6.03-2.103-8.467,0l-97.62,84.201c-1.426,1.225-2.245,3.019-2.245,4.911v121.769
		c0,3.587,2.901,6.481,6.482,6.481h195.232c3.581,0,6.482-2.895,6.482-6.481V154.535c0-1.893-0.819-3.687-2.245-4.911
		L154.233,65.423z M163.239,241.939c0,7.076-2.904,13.236-13.239,13.236c-10.341,0-13.239-6.16-13.239-13.236v-73.093
		c0-7.063,2.897-13.235,13.239-13.235c10.335,0,13.239,6.172,13.239,13.235V241.939z M150,146.729
		c-7.617,0-13.783-6.173-13.783-13.78c0-7.619,6.167-13.779,13.783-13.779c7.614,0,13.783,6.16,13.783,13.779
		C163.783,140.557,157.614,146.729,150,146.729z"/>
</g>
</svg>
