<?xml version="1.0" encoding="utf-8"?>
<!-- Generator: Adobe Illustrator 16.0.0, SVG Export Plug-In . SVG Version: 6.00 Build 0)  -->
<!DOCTYPE svg PUBLIC "-//W3C//DTD SVG 1.1//EN" "http://www.w3.org/Graphics/SVG/1.1/DTD/svg11.dtd">
<svg version="1.1" id="Layer_1" xmlns="http://www.w3.org/2000/svg" xmlns:xlink="http://www.w3.org/1999/xlink" x="0px" y="0px"
	 width="300px" height="300px" viewBox="0 0 300 300" enable-background="new 0 0 300 300" xml:space="preserve">
<g>
	<path d="M279.541,279.539h-38.859v-67.86l8.474,10.181c2.561,3.067,6.24,4.663,9.957,4.663c2.92,0,5.857-0.989,8.288-3.006
		c5.492-4.589,6.229-12.753,1.657-18.245l-31.382-37.653c-4.923-5.913-14.979-5.913-19.902,0l-31.376,37.653
		c-4.576,5.492-3.841,13.656,1.651,18.245c5.498,4.577,13.669,3.835,18.252-1.657l8.467-10.181v67.86h-58.286V13.975
		c0-3.575-2.9-6.476-6.481-6.476H20.459c-3.581,0-6.476,2.901-6.476,6.476v272.046c0,3.575,2.895,6.481,6.476,6.481h259.082
		c3.581,0,6.476-2.906,6.476-6.481C286.017,282.434,283.122,279.539,279.541,279.539z M143.519,279.539H26.94V20.457h116.578
		V279.539z"/>
	<path d="M49.607,216.404h22.668c3.581,0,6.476-2.895,6.476-6.47v-22.686c0-3.575-2.895-6.481-6.476-6.481H49.607
		c-3.581,0-6.481,2.906-6.481,6.481v22.686C43.126,213.51,46.026,216.404,49.607,216.404z"/>
	<path d="M98.184,216.404h22.674c3.574,0,6.476-2.895,6.476-6.47v-22.686c0-3.575-2.901-6.481-6.476-6.481H98.184
		c-3.581,0-6.476,2.906-6.476,6.481v22.686C91.708,213.51,94.603,216.404,98.184,216.404z"/>
	<path d="M49.607,265.017h22.668c3.581,0,6.476-2.895,6.476-6.481v-22.698c0-3.575-2.895-6.47-6.476-6.47H49.607
		c-3.581,0-6.481,2.895-6.481,6.47v22.698C43.126,262.122,46.026,265.017,49.607,265.017z"/>
	<path d="M98.184,265.017h22.674c3.574,0,6.476-2.895,6.476-6.481v-22.698c0-3.575-2.901-6.47-6.476-6.47H98.184
		c-3.581,0-6.476,2.895-6.476,6.47v22.698C91.708,262.122,94.603,265.017,98.184,265.017z"/>
	<path d="M49.607,167.816h22.668c3.581,0,6.476-2.895,6.476-6.47v-22.698c0-3.575-2.895-6.476-6.476-6.476H49.607
		c-3.581,0-6.481,2.901-6.481,6.476v22.698C43.126,164.922,46.026,167.816,49.607,167.816z"/>
	<path d="M98.184,167.816h22.674c3.574,0,6.476-2.895,6.476-6.47v-22.698c0-3.575-2.901-6.476-6.476-6.476H98.184
		c-3.581,0-6.476,2.901-6.476,6.476v22.698C91.708,164.922,94.603,167.816,98.184,167.816z"/>
	<path d="M49.607,119.216h22.668c3.581,0,6.476-2.895,6.476-6.469V90.054c0-3.581-2.895-6.476-6.476-6.476H49.607
		c-3.581,0-6.481,2.895-6.481,6.476v22.692C43.126,116.321,46.026,119.216,49.607,119.216z"/>
	<path d="M98.184,119.216h22.674c3.574,0,6.476-2.895,6.476-6.469V90.054c0-3.581-2.901-6.476-6.476-6.476H98.184
		c-3.581,0-6.476,2.895-6.476,6.476v22.692C91.708,116.321,94.603,119.216,98.184,119.216z"/>
	<path d="M49.607,70.622h22.668c3.581,0,6.476-2.901,6.476-6.476V41.46c0-3.581-2.895-6.481-6.476-6.481H49.607
		c-3.581,0-6.481,2.9-6.481,6.481v22.686C43.126,67.721,46.026,70.622,49.607,70.622z"/>
	<path d="M98.184,70.622h22.674c3.574,0,6.476-2.901,6.476-6.476V41.46c0-3.581-2.901-6.481-6.476-6.481H98.184
		c-3.581,0-6.476,2.9-6.476,6.481v22.686C91.708,67.721,94.603,70.622,98.184,70.622z"/>
	<path d="M225.325,70.64c-3.872,0.693-5.776,3.569-5.776,7.62c0,3.476,1.051,5.214,5.776,8.968V70.64z"/>
	<path d="M235.827,113.946c0-4.713-2.022-7.632-6.074-9.846v18.746C233.514,122.259,235.827,118.202,235.827,113.946z"/>
	<path d="M227.743,151.983c29.124,0,52.813-23.713,52.813-52.844c0-29.118-23.688-52.818-52.813-52.818
		c-29.149,0-52.855,23.7-52.855,52.818C174.888,128.271,198.594,151.983,227.743,151.983z M219.141,97.854
		c-6.921-4.435-10.607-10.242-10.607-18.338c0-10.119,6.179-17.843,16.792-18.146v-2.493c0-1.559,0.687-2.61,2.202-2.61
		c1.558,0,2.226,1.051,2.226,2.61v2.493c8.771,0,16.02,5.795,16.02,14.59c0,3.08-2.122,5.591-5.295,5.591
		c-4.168,0-5.04-2.511-5.696-5.703c-0.772-3.661-2.913-5.208-5.028-5.208v19l5.61,3.29c7.335,4.243,12.233,9.735,12.233,18.802
		c0,12.369-6.47,19.816-17.844,20.397v7.397c0,1.441-0.668,2.499-2.226,2.499c-1.516,0-2.202-1.058-2.202-2.499v-7.397
		c-10.125,0-17.466-7.447-17.466-17.207c0-3.476,1.645-6.568,5.3-6.568c3.377,0,5.214,1.923,5.703,6.382
		c0.47,4.726,2.411,7.7,6.463,8.108v-21.035L219.141,97.854z"/>
</g>
</svg>
