<?xml version="1.0" encoding="iso-8859-1"?>
<!-- Generator: Adobe Illustrator 18.1.1, SVG Export Plug-In . SVG Version: 6.00 Build 0)  -->
<svg version="1.1" id="Capa_1" xmlns="http://www.w3.org/2000/svg" xmlns:xlink="http://www.w3.org/1999/xlink" x="0px" y="0px"
	 viewBox="0 0 285 285" style="enable-background:new 0 0 285 285;" xml:space="preserve">
<g>
	<g>
		<path d="M272.046,29.15H12.954C5.798,29.15,0,34.945,0,42.101v161.926c0,7.162,5.798,12.951,12.954,12.951h259.092
			c7.156,0,12.954-5.789,12.954-12.951V42.101C285,34.945,279.202,29.15,272.046,29.15z M259.092,191.07H25.909V55.052h233.183
			V191.07z"/>
		<path d="M223.467,229.937H61.534c-7.153,0-12.955,5.808-12.955,12.951c0,7.168,5.802,12.963,12.955,12.963h161.933
			c7.152,0,12.954-5.795,12.954-12.963C236.421,235.743,230.619,229.937,223.467,229.937z"/>
		<path d="M106.198,139.439c0-1.571-1.274-2.845-2.848-2.845h-9.976c-1.556,0-2.848,1.274-2.848,2.845v9.982
			c0,1.571,1.292,2.839,2.848,2.839h9.976c1.574,0,2.848-1.268,2.848-2.839V139.439z"/>
		<path d="M103.35,157.95h-9.976c-1.556,0-2.848,1.28-2.848,2.852v9.976c0,1.59,1.292,2.852,2.848,2.852h9.976
			c1.574,0,2.848-1.262,2.848-2.852v-9.976C106.198,159.23,104.924,157.95,103.35,157.95z"/>
		<path d="M106.198,118.076c0-1.571-1.274-2.845-2.848-2.845h-9.976c-1.556,0-2.848,1.274-2.848,2.845v9.976
			c0,1.577,1.292,2.852,2.848,2.852h9.976c1.574,0,2.848-1.274,2.848-2.852V118.076z"/>
		<path d="M106.198,96.707c0-1.565-1.274-2.845-2.848-2.845h-9.976c-1.556,0-2.848,1.28-2.848,2.845v9.976
			c0,1.583,1.292,2.857,2.848,2.857h9.976c1.574,0,2.848-1.274,2.848-2.857V96.707z"/>
		<path d="M106.198,75.351c0-1.571-1.274-2.845-2.848-2.845h-9.976c-1.556,0-2.848,1.274-2.848,2.845v9.97
			c0,1.577,1.292,2.845,2.848,2.845h9.976c1.574,0,2.848-1.268,2.848-2.845V75.351z"/>
		<path d="M111.894,106.684c0,1.583,1.271,2.857,2.845,2.857h9.97c1.559,0,2.845-1.274,2.845-2.857v-9.976
			c0-1.565-1.287-2.845-2.845-2.845h-9.97c-1.574,0-2.845,1.28-2.845,2.845V106.684z"/>
		<path d="M114.739,88.166h9.97c1.559,0,2.845-1.268,2.845-2.845v-9.97c0-1.571-1.287-2.845-2.845-2.845h-9.97
			c-1.574,0-2.845,1.274-2.845,2.845v9.97C111.894,86.898,113.165,88.166,114.739,88.166z"/>
		<path d="M80.574,185.695h39.528c-0.322-0.884-0.538-1.824-0.538-2.832v-2.857H83.422V66.123h51.245v44.482l5.693-4.893v-42.44
			c0-1.565-1.268-2.845-2.845-2.845H80.574c-1.574,0-2.848,1.28-2.848,2.845v119.591C77.726,184.428,79,185.695,80.574,185.695z"/>
		<path d="M114.346,141.219c1.534,1.806,4.237,1.998,6.024,0.458l39.92-34.338l39.933,34.338c0.798,0.693,1.788,1.039,2.783,1.039
			c1.203,0,2.391-0.507,3.235-1.497c1.537-1.781,1.333-4.49-0.452-6.024l-42.713-36.726c-1.599-1.386-3.961-1.386-5.569,0
			l-42.704,36.726C113.014,136.73,112.813,139.439,114.346,141.219z"/>
		<path d="M162.159,112.794c-1.073-0.922-2.656-0.922-3.727,0l-32.174,27.77c-0.634,0.532-1.002,1.324-1.002,2.152v40.146
			c0,1.564,1.293,2.832,2.845,2.832h64.369c1.577,0,2.848-1.268,2.848-2.832v-40.146c0-0.829-0.358-1.621-0.98-2.152
			L162.159,112.794z M157.446,173.122c0,1.552-1.271,2.832-2.848,2.832h-9.958c-1.577,0-2.848-1.28-2.848-2.832v-9.982
			c0-1.577,1.271-2.857,2.848-2.857h9.958c1.577,0,2.848,1.28,2.848,2.857V173.122z M157.446,151.766
			c0,1.559-1.271,2.839-2.848,2.839h-9.958c-1.577,0-2.848-1.28-2.848-2.839v-9.989c0-1.577,1.271-2.845,2.848-2.845h9.958
			c1.577,0,2.848,1.268,2.848,2.845V151.766z M178.802,173.122c0,1.552-1.274,2.832-2.845,2.832h-9.97
			c-1.562,0-2.845-1.28-2.845-2.832v-9.982c0-1.577,1.283-2.857,2.845-2.857h9.97c1.571,0,2.845,1.28,2.845,2.857V173.122z
			 M178.802,151.766c0,1.559-1.274,2.839-2.845,2.839h-9.97c-1.562,0-2.845-1.28-2.845-2.839v-9.989
			c0-1.577,1.283-2.845,2.845-2.845h9.97c1.571,0,2.845,1.268,2.845,2.845V151.766z"/>
	</g>
</g>
<g>
</g>
<g>
</g>
<g>
</g>
<g>
</g>
<g>
</g>
<g>
</g>
<g>
</g>
<g>
</g>
<g>
</g>
<g>
</g>
<g>
</g>
<g>
</g>
<g>
</g>
<g>
</g>
<g>
</g>
</svg>
