<?xml version="1.0" encoding="utf-8"?>
<!-- Generator: Adobe Illustrator 16.0.0, SVG Export Plug-In . SVG Version: 6.00 Build 0)  -->
<!DOCTYPE svg PUBLIC "-//W3C//DTD SVG 1.1//EN" "http://www.w3.org/Graphics/SVG/1.1/DTD/svg11.dtd">
<svg version="1.1" id="Layer_1" xmlns="http://www.w3.org/2000/svg" xmlns:xlink="http://www.w3.org/1999/xlink" x="0px" y="0px"
	 width="300px" height="300px" viewBox="0 0 300 300" enable-background="new 0 0 300 300" xml:space="preserve">
<g>
	<path d="M150,7.5C71.421,7.5,7.5,71.421,7.5,150c0,78.566,63.921,142.5,142.5,142.5S292.5,228.566,292.5,150
		C292.5,71.421,228.579,7.5,150,7.5z M150,278.924c-71.089,0-128.924-57.841-128.924-128.924
		C21.076,78.908,78.911,21.076,150,21.076S278.924,78.908,278.924,150C278.924,221.083,221.089,278.924,150,278.924z"/>
	<path d="M241.456,125.783L156.643,52.86c-3.822-3.284-9.463-3.284-13.285,0l-84.813,72.923c-4.261,3.661-4.744,10.084-1.083,14.352
		c3.662,4.261,10.094,4.747,14.349,1.082L150,74l78.189,67.217c1.917,1.655,4.28,2.465,6.624,2.465c2.864,0,5.721-1.206,7.725-3.547
		C246.2,135.868,245.718,129.444,241.456,125.783z"/>
	<path d="M150,124.679c-6.371,0-11.553,5.183-11.553,11.556V156.6h23.106v-20.364C161.553,129.862,156.371,124.679,150,124.679z"/>
	<path d="M152.214,84.289c-1.268-1.101-3.161-1.101-4.429,0l-63.908,55.145c-0.749,0.646-1.182,1.577-1.182,2.573v79.732
		c0,1.862,1.521,3.39,3.402,3.39h127.805c1.88,0,3.402-1.527,3.402-3.39v-79.732c0-0.996-0.433-1.926-1.182-2.573L152.214,84.289z
		 M180.529,200.858c0,1.861-1.509,3.39-3.39,3.39h-54.278c-1.88,0-3.39-1.528-3.39-3.39v-40.863c0-1.881,1.509-3.396,3.39-3.396
		h8.795v-20.364c0-10.118,8.226-18.344,18.344-18.344s18.344,8.226,18.344,18.344V156.6h8.795c1.88,0,3.39,1.515,3.39,3.396V200.858
		z"/>
</g>
</svg>
