<?xml version="1.0" encoding="iso-8859-1"?>
<!-- Generator: Adobe Illustrator 18.1.1, SVG Export Plug-In . SVG Version: 6.00 Build 0)  -->
<svg version="1.1" id="Capa_1" xmlns="http://www.w3.org/2000/svg" xmlns:xlink="http://www.w3.org/1999/xlink" x="0px" y="0px"
	 viewBox="0 0 285.002 285.002" style="enable-background:new 0 0 285.002 285.002;" xml:space="preserve">
<g>
	<g>
		<path d="M84.609,129.326H200.39c9.815,0,17.813-7.966,17.813-17.813V34.082c0-9.85-7.997-17.813-17.813-17.813H84.609
			c-9.815,0-17.813,7.963-17.813,17.813v77.432C66.797,121.36,74.794,129.326,84.609,129.326z"/>
		<path d="M258.281,81.703c-14.757,0-26.719,11.965-26.719,26.719V147c-4.373-1.868-9.142-2.953-14.176-2.953H67.613
			c-5.034,0-9.803,1.085-14.176,2.953v-38.578c0-14.754-11.962-26.719-26.719-26.719S0,93.668,0,108.421v115.781
			c0,14.754,11.962,26.719,26.719,26.719h3.13c0,9.85,7.997,17.813,17.813,17.813c9.877,0,17.813-7.963,17.813-17.813H219.54
			c0,9.85,7.929,17.813,17.813,17.813c9.81,0,17.813-7.963,17.813-17.813h3.117c14.757,0,26.719-11.965,26.719-26.719V108.421
			C285,93.668,273.038,81.703,258.281,81.703z"/>
	</g>
</g>
<g>
</g>
<g>
</g>
<g>
</g>
<g>
</g>
<g>
</g>
<g>
</g>
<g>
</g>
<g>
</g>
<g>
</g>
<g>
</g>
<g>
</g>
<g>
</g>
<g>
</g>
<g>
</g>
<g>
</g>
</svg>
