<?xml version="1.0" encoding="iso-8859-1"?>
<!-- Generator: Adobe Illustrator 18.1.1, SVG Export Plug-In . SVG Version: 6.00 Build 0)  -->
<svg version="1.1" id="Capa_1" xmlns="http://www.w3.org/2000/svg" xmlns:xlink="http://www.w3.org/1999/xlink" x="0px" y="0px"
	 viewBox="0 0 284.997 284.997" style="enable-background:new 0 0 284.997 284.997;" xml:space="preserve">
<g>
	<g>
		<path d="M233.178,235.122c0,3.575-2.901,6.476-6.476,6.476h-45.341c-3.578,0-6.479-2.9-6.479-6.476v-93.973
			c-8.198,0.353-16.866,0.557-25.908,0.638v67.421c0,3.581-2.901,6.481-6.476,6.481H64.774c-3.578,0-6.479-2.9-6.479-6.481v-72.165
			c-10.007-1.2-18.672-2.474-25.908-3.698v108.253c0,7.15,5.801,12.951,12.954,12.951h194.315c7.156,0,12.958-5.801,12.958-12.951
			V133.345c-5.653,0.952-12.088,1.941-19.436,2.895L233.178,235.122L233.178,235.122z"/>
		<path d="M282.351,95.141l-45.338-59.585c-2.452-3.222-6.265-5.108-10.31-5.108H58.295c-4.045,0-7.858,1.887-10.31,5.108
			L2.644,95.141c-2.61,3.433-3.343,7.947-1.951,12.023c1.395,4.082,4.731,7.211,8.897,8.331
			c2.035,0.544,50.771,13.396,132.909,13.396s130.872-12.853,132.913-13.396c4.162-1.12,7.496-4.249,8.894-8.331
			C285.697,103.088,284.961,98.573,282.351,95.141z"/>
		<circle cx="220.226" cy="176.824" r="6.477"/>
	</g>
</g>
<g>
</g>
<g>
</g>
<g>
</g>
<g>
</g>
<g>
</g>
<g>
</g>
<g>
</g>
<g>
</g>
<g>
</g>
<g>
</g>
<g>
</g>
<g>
</g>
<g>
</g>
<g>
</g>
<g>
</g>
</svg>
