<?xml version="1.0" encoding="iso-8859-1"?>
<!-- Generator: Adobe Illustrator 18.1.1, SVG Export Plug-In . SVG Version: 6.00 Build 0)  -->
<svg version="1.1" id="Capa_1" xmlns="http://www.w3.org/2000/svg" xmlns:xlink="http://www.w3.org/1999/xlink" x="0px" y="0px"
	 viewBox="0 0 285 285" style="enable-background:new 0 0 285 285;" xml:space="preserve">
<g>
	<g>
		<path d="M168.409,47.338c3.577,0,6.477-2.901,6.477-6.478c0-5.901,4.805-10.706,10.712-10.706c5.912,0,10.722,4.804,10.722,10.706
			v83.151c0,3.577,2.9,6.478,6.478,6.478s6.477-2.901,6.477-6.478v-19.492h56.293v28.126c0,3.577,2.901,6.477,6.477,6.477
			c3.577,0,6.478-2.9,6.478-6.477V40.86c0-13.046-10.617-23.661-23.667-23.661c-13.053,0-23.673,10.614-23.673,23.661
			c0,3.577,2.9,6.478,6.477,6.478c3.578,0,6.478-2.901,6.478-6.478c0-5.901,4.807-10.706,10.719-10.706
			c5.908,0,10.712,4.804,10.712,10.706v50.705h-56.293V40.86c0-13.046-10.62-23.661-23.676-23.661
			c-13.049,0-23.667,10.614-23.667,23.661C161.932,44.437,164.832,47.338,168.409,47.338z"/>
		<path d="M12.955,129.62c62.277,0,92.614,12.135,124.735,24.982c32.98,13.194,67.087,26.835,134.355,26.835
			c7.154,0,12.955-5.8,12.955-12.955c0-7.153-5.801-12.954-12.955-12.954c-62.277,0-92.614-12.135-124.735-24.982
			c-32.981-13.195-67.087-26.836-134.355-26.836C5.801,103.71,0,109.51,0,116.664S5.801,129.62,12.955,129.62z"/>
		<path d="M272.045,198.708c-62.277,0-92.614-12.135-124.735-24.982c-32.981-13.196-67.087-26.836-134.355-26.836
			C5.801,146.891,0,152.691,0,159.846s5.801,12.955,12.955,12.955c62.277,0,92.614,12.135,124.735,24.983
			c32.98,13.195,67.087,26.835,134.355,26.835c7.154,0,12.955-5.8,12.955-12.955S279.199,198.708,272.045,198.708z"/>
		<path d="M272.045,241.893c-62.277,0-92.614-12.136-124.735-24.983c-32.981-13.195-67.087-26.835-134.355-26.835
			c-7.154,0-12.955,5.8-12.955,12.954s5.801,12.955,12.955,12.955c62.277,0,92.614,12.136,124.735,24.982
			c32.98,13.195,67.087,26.836,134.355,26.836c7.154,0,12.955-5.801,12.955-12.955C285,247.693,279.199,241.893,272.045,241.893z"/>
	</g>
</g>
<g>
</g>
<g>
</g>
<g>
</g>
<g>
</g>
<g>
</g>
<g>
</g>
<g>
</g>
<g>
</g>
<g>
</g>
<g>
</g>
<g>
</g>
<g>
</g>
<g>
</g>
<g>
</g>
<g>
</g>
</svg>
