<?xml version="1.0" encoding="iso-8859-1"?>
<!-- Generator: Adobe Illustrator 18.1.1, SVG Export Plug-In . SVG Version: 6.00 Build 0)  -->
<svg version="1.1" id="Capa_1" xmlns="http://www.w3.org/2000/svg" xmlns:xlink="http://www.w3.org/1999/xlink" x="0px" y="0px"
	 viewBox="0 0 284.998 284.998" style="enable-background:new 0 0 284.998 284.998;" xml:space="preserve">
<g>
	<g>
		<path d="M278.894,87.473c-36.455-36.453-84.888-56.524-136.395-56.524c-51.501,0-99.94,20.07-136.395,56.523
			c-8.139,8.151-8.139,21.356,0,29.489c8.146,8.158,21.351,8.158,29.496,0C64.175,88.4,102.137,72.66,142.499,72.66
			s78.324,15.74,106.898,44.302c4.082,4.082,9.413,6.11,14.751,6.11c5.331,0,10.663-2.028,14.745-6.11
			C287.032,108.829,287.032,95.63,278.894,87.473z"/>
		<path d="M142.499,99.749c-36.212,0-70.247,14.12-95.84,39.757c-8.14,8.164-8.127,21.355,0.024,29.489
			c8.14,8.139,21.351,8.12,29.489-0.025c17.701-17.744,41.266-27.51,66.326-27.51s48.625,9.766,66.326,27.51
			c4.076,4.089,9.413,6.123,14.757,6.123c5.325,0,10.675-2.022,14.732-6.098c8.151-8.134,8.164-21.325,0.024-29.489
			C212.746,113.869,178.711,99.749,142.499,99.749z"/>
		<path d="M142.499,170.702c-23.008,0-41.711,18.728-41.711,41.71c0,22.965,18.703,41.637,41.711,41.637
			s41.711-18.672,41.711-41.637C184.21,189.43,165.507,170.702,142.499,170.702z"/>
	</g>
</g>
<g>
</g>
<g>
</g>
<g>
</g>
<g>
</g>
<g>
</g>
<g>
</g>
<g>
</g>
<g>
</g>
<g>
</g>
<g>
</g>
<g>
</g>
<g>
</g>
<g>
</g>
<g>
</g>
<g>
</g>
</svg>
